<svg width="20" height="20" viewBox="0 0 20 20" fill="none" xmlns="http://www.w3.org/2000/svg">
<path d="M13.5527 15.1542C13.467 15.2302 13.3764 15.3058 13.2809 15.381C12.8806 15.6964 12.5017 15.9631 12.154 16.1888C11.6911 16.4917 11.2082 16.7629 10.7087 17.0004C10.4732 17.1145 10.2306 17.213 9.98219 17.2953C9.73659 17.2141 9.49661 17.1168 9.26385 17.004C8.7639 16.7682 8.28085 16.4981 7.81815 16.1957C7.46748 15.9679 7.08567 15.6993 6.68147 15.3811C6.586 15.3062 6.49542 15.2303 6.40967 15.1543C6.60365 14.8832 6.8261 14.6335 7.07322 14.4096C7.3343 14.6169 7.58359 14.8018 7.81838 14.9663C8.27857 15.2919 8.76165 15.5839 9.26385 15.8401C9.4958 15.9611 9.73574 16.0661 9.982 16.1544C10.2313 16.0651 10.4741 15.9586 10.7085 15.8356C11.2108 15.5788 11.6937 15.2859 12.1534 14.9591C12.3853 14.7965 12.6317 14.6135 12.8888 14.4092C13.136 14.6331 13.3585 14.8827 13.5526 15.1538L13.5527 15.1542Z" fill="white"/>
<path d="M17.9237 1.65974V10.8924L17.9236 10.8958C17.9235 11.0564 17.9053 11.2166 17.8692 11.3731C17.7519 11.8789 17.4566 12.3256 17.037 12.6318C16.8687 12.7569 16.6826 12.8561 16.4849 12.9261C16.4167 12.9507 16.3472 12.9718 16.2769 12.9893C16.2156 13.0039 16.1544 13.0165 16.0912 13.0263C16.0639 13.0302 16.0367 13.034 16.0086 13.037C15.9272 13.0466 15.8454 13.0515 15.7635 13.0515H15.7617C15.6529 13.0514 15.5443 13.0429 15.4367 13.0262C15.3057 13.007 15.1768 12.9752 15.0519 12.9312C14.9471 12.8946 14.8455 12.8497 14.7478 12.7969C14.707 12.7755 14.6671 12.7523 14.6283 12.728C14.4818 12.9258 14.3034 13.0978 14.1003 13.237C13.99 13.3124 13.8729 13.3772 13.7503 13.4304C13.7046 13.4509 13.658 13.4694 13.6104 13.4859C13.3799 13.5686 13.1368 13.6109 12.8919 13.611H12.888L12.8849 13.611C12.7574 13.6109 12.6302 13.5992 12.5048 13.5761C12.4469 13.5665 12.3895 13.5539 12.333 13.5382C12.2775 13.5849 12.2222 13.6286 12.1687 13.6713C11.7173 14.0324 11.2344 14.3524 10.7258 14.6275C10.4939 14.7571 10.2513 14.8668 10.0009 14.9556C9.75356 14.8676 9.51399 14.7592 9.28457 14.6318C8.95799 14.4581 8.64269 14.2641 8.34053 14.0509C8.18208 13.9392 8.01589 13.8159 7.84185 13.6778C7.79911 13.6449 7.7553 13.6109 7.71156 13.5739C7.52841 13.6261 7.33916 13.6539 7.14872 13.6566C7.14066 13.6574 7.13251 13.6577 7.12445 13.6577H7.11957L7.11768 13.6576C6.87315 13.6576 6.63046 13.6155 6.40017 13.5334V13.4994C6.40017 13.5111 6.40016 13.5217 6.39918 13.5334C6.3954 13.8049 6.33966 14.0733 6.23496 14.3239C6.04083 14.7869 5.6931 15.1689 5.25023 15.4059C5.15649 15.4566 5.05892 15.4999 4.95843 15.5354C4.72755 15.6169 4.48448 15.6586 4.23961 15.6586H4.23912C4.06818 15.6585 3.89784 15.6382 3.73163 15.5983C3.65992 15.581 3.58915 15.56 3.51964 15.5353C3.51815 15.5339 3.51688 15.5322 3.51585 15.5304V15.5333C3.45754 15.5129 3.40114 15.4896 3.3457 15.4643C3.38657 15.4682 3.42733 15.4701 3.46915 15.4701L3.47394 15.4703V15.4693C3.48852 15.4693 3.5021 15.4693 3.51577 15.4683C3.57641 15.4671 3.63688 15.4616 3.69672 15.4516C3.90107 15.4205 4.09669 15.3472 4.27109 15.2363C4.44548 15.1254 4.59481 14.9794 4.70954 14.8076C4.8573 14.5891 4.94328 14.3347 4.95843 14.0714C4.96039 14.0422 4.96131 14.0131 4.96131 13.983V1.18577C4.96131 1.13188 4.94193 1.07972 4.90656 1.03903C4.8712 0.99835 4.82233 0.97179 4.76893 0.964243L4.21962 0.886552L4.21088 0.834145C4.21088 0.820557 5.91113 0.408697 6.4001 0.320312L6.39622 13.1343C6.39622 13.1627 6.40191 13.191 6.41278 13.2172C6.42366 13.2435 6.43959 13.2673 6.45969 13.2874C6.47978 13.3074 6.50362 13.3234 6.52987 13.3342C6.55612 13.3451 6.58426 13.3507 6.61268 13.3507H6.61307L6.81806 13.3508C7.21668 13.3508 7.84167 13.0283 7.84167 12.6292L7.84176 4.93322C8.3186 4.85981 8.79891 4.81111 9.28079 4.78731L9.28177 13.7664C9.28165 13.7778 9.28257 13.7892 9.28451 13.8004C9.28461 13.8081 9.28626 13.8157 9.28936 13.8228C9.29103 13.8319 9.29397 13.8407 9.29808 13.849C9.30142 13.8577 9.30533 13.8661 9.30978 13.8743C9.31575 13.8851 9.3229 13.8951 9.33111 13.9043C9.33435 13.9091 9.33793 13.9136 9.34181 13.9179C9.34667 13.9218 9.35154 13.9266 9.3564 13.9305C9.35738 13.9315 9.3584 13.9315 9.35928 13.9334L9.36028 13.9354C9.36778 13.9418 9.37595 13.9473 9.38466 13.9519C9.3933 13.9565 9.38465 13.9529 9.38563 13.9519C9.40684 13.9648 9.43024 13.9737 9.45466 13.9782C9.46673 13.9814 9.47919 13.9831 9.49171 13.9831L9.49543 13.983L9.62364 13.9832C9.67322 13.9832 10.7231 13.9429 10.7231 13.1139L10.726 4.78849C11.2068 4.81158 11.6861 4.85962 12.1619 4.93242L12.1658 13.1334L12.1657 13.1345C12.1657 13.1629 12.1713 13.191 12.1822 13.2172C12.193 13.2435 12.209 13.2673 12.2291 13.2874C12.2491 13.3075 12.273 13.3234 12.2992 13.3342C12.3255 13.3451 12.3536 13.3507 12.382 13.3507H12.3825L12.54 13.3509C12.9386 13.3509 13.6113 13.0284 13.6113 12.6292L13.6103 5.24019C14.097 5.37094 14.5753 5.53096 15.0426 5.71938L15.0423 12.2948C15.0423 12.3367 15.0505 12.3781 15.0666 12.4168C15.0826 12.4555 15.1061 12.4906 15.1357 12.5202C15.1654 12.5498 15.2005 12.5733 15.2392 12.5893C15.2779 12.6053 15.3194 12.6136 15.3613 12.6135L15.5082 12.6136C15.9068 12.6136 16.4878 12.2901 16.4878 11.8909L16.4879 5.38298C16.4877 5.36454 16.4867 5.34593 16.4848 5.32758L16.4849 1.79575C16.4849 1.67206 16.4367 1.55323 16.3506 1.46436L15.8471 0.944854L15.8472 0.851614L16.4849 1.08089C16.9797 1.25477 17.4593 1.44769 17.9237 1.65974Z" fill="white"/>
<path d="M3.51594 1.08203V10.7343C3.51181 11.233 3.39169 11.7239 3.16507 12.1682C2.85559 12.7805 2.69347 13.4565 2.69163 14.1424C2.69163 14.1716 2.69163 14.1997 2.69261 14.2289C2.34566 13.5377 2.13667 12.7855 2.07731 12.0145L2.07715 1.66096C2.54181 1.44823 3.02141 1.25525 3.51594 1.08203Z" fill="white"/>
<path d="M14.9653 17.0125V17.0134C14.4831 17.4029 14.0233 17.7448 13.5916 18.045C13.0657 18.4112 12.5816 18.7153 12.15 18.9649C11.9419 19.0853 11.7469 19.1935 11.5648 19.2893H11.5638C11.2615 19.4506 9.98215 20.0003 9.98215 20.0003C9.98215 20.0003 8.70281 19.4506 8.3995 19.2893H8.39859C8.21972 19.1941 8.02724 19.0883 7.82309 18.9707C7.39146 18.721 6.90735 18.418 6.38143 18.0519C5.9469 17.7498 5.48414 17.4059 4.99805 17.0135V17.0125C5.00291 16.9833 5.00874 16.9532 5.01553 16.9222C5.1095 16.4772 5.27149 16.0493 5.49583 15.6537C5.57655 15.7255 5.66013 15.7974 5.74662 15.8684C5.8419 15.946 5.93619 16.0218 6.0285 16.0946C6.1481 16.1889 6.2657 16.2802 6.38143 16.3666C6.4436 16.4142 6.50487 16.4599 6.56613 16.5045C7.01919 16.8378 7.44103 17.1175 7.82309 17.3526C8.28897 17.6394 8.77091 17.8993 9.26655 18.131C9.49927 18.2418 9.73828 18.3388 9.98233 18.4217C10.2295 18.3375 10.4715 18.2388 10.7071 18.1261C11.2034 17.8951 11.6854 17.6344 12.1503 17.3455C12.5314 17.1114 12.9533 16.8317 13.4053 16.4984C13.4666 16.4528 13.5288 16.4071 13.592 16.3595C13.697 16.2799 13.8039 16.1983 13.9118 16.1128C14.0119 16.0342 14.1137 15.9526 14.217 15.868C14.3034 15.7971 14.3871 15.7252 14.4677 15.6533C14.7076 16.0757 14.8757 16.5349 14.9651 17.0123L14.9653 17.0125Z" fill="white"/>
<path d="M13.6125 0.323824C13.6093 0.322022 13.6059 0.320874 13.6023 0.320458C13.1338 0.234874 12.6553 0.166079 12.17 0.115793C12.1683 0.114158 12.1667 0.114158 12.1633 0.115793C11.6916 0.0637784 11.2131 0.0296499 10.7278 0.0134194C10.7262 0.0117846 10.7262 0.0117846 10.7244 0.0134194C10.486 0.0033799 10.2443 0 10.0025 0C9.76242 0 9.52391 0.0033799 9.28557 0.0134194H9.28222C8.79696 0.0285688 8.31731 0.0621171 7.84326 0.114062V3.6641C7.8527 3.66213 7.86228 3.66099 7.87192 3.66072C8.72827 2.13736 10.8069 2.44101 10.8069 2.44101C8.24803 3.24129 15.0447 4.04321 15.0447 4.04321L15.0447 0.639246C14.5762 0.516729 14.0988 0.411587 13.6125 0.323824ZM13.6209 1.26835C13.6196 1.27427 13.6172 1.27993 13.614 1.28507C13.6129 1.28623 13.6123 1.28775 13.6123 1.28934L13.6124 1.29009C13.5966 1.31721 13.5786 1.34301 13.5586 1.36726C13.5145 1.41625 13.4655 1.46069 13.4125 1.49994C13.3683 1.53244 13.3217 1.56155 13.2731 1.587C13.2043 1.62395 13.1338 1.65579 13.0633 1.68936C13.0197 1.70944 12.976 1.73134 12.934 1.75142C12.9172 1.7598 12.9004 1.76821 12.8853 1.77659C12.8803 1.77997 12.8769 1.78326 12.8769 1.78835L12.8719 1.81856C12.8708 1.81976 12.8702 1.82131 12.8702 1.82293L12.8702 1.82367C12.8702 1.83874 12.8652 1.85386 12.8635 1.87064C12.8619 1.87064 12.8619 1.8723 12.8635 1.87402C12.8585 1.90258 12.8534 1.93279 12.8501 1.96125C12.8467 1.97803 12.8451 1.99482 12.8417 2.01326C12.8399 2.01326 12.8399 2.01491 12.8417 2.01664C12.8386 2.02877 12.8363 2.04108 12.8349 2.05351L12.835 2.05514C12.835 2.05805 12.8344 2.06093 12.8333 2.06361C12.8329 2.0639 12.8326 2.06428 12.8324 2.06471C12.8322 2.06514 12.8321 2.06561 12.8321 2.06609C12.8321 2.06657 12.8322 2.06704 12.8324 2.06747C12.8326 2.0679 12.8329 2.06827 12.8333 2.06856C12.8283 2.09702 12.8232 2.1256 12.8198 2.15579C12.8165 2.17257 12.8148 2.18935 12.8115 2.20607C12.8111 2.2064 12.8108 2.20681 12.8106 2.20726C12.8104 2.20771 12.8102 2.20821 12.8102 2.20871C12.8102 2.20919 12.8104 2.20966 12.8106 2.21008C12.8108 2.21051 12.8111 2.21089 12.8115 2.21118C12.8064 2.23973 12.8014 2.26991 12.7964 2.2984C12.7947 2.31518 12.793 2.33197 12.7896 2.34875C12.7893 2.34904 12.7889 2.34941 12.7887 2.34984C12.7885 2.35027 12.7884 2.35075 12.7884 2.35123C12.7884 2.35171 12.7885 2.35218 12.7887 2.35261C12.7889 2.35304 12.7893 2.35342 12.7896 2.3537V2.36045C12.793 2.35879 12.7947 2.35879 12.798 2.35706C12.8084 2.35394 12.8185 2.35004 12.8283 2.34539C12.8437 2.3392 12.8607 2.33802 12.8769 2.342L12.8819 2.34702C12.8946 2.35655 12.9045 2.36931 12.9105 2.38398C12.9257 2.4151 12.9391 2.44703 12.9508 2.4796C12.955 2.4895 12.9571 2.50013 12.9571 2.51086C12.9572 2.51558 12.9567 2.52029 12.9559 2.52494C12.9543 2.52494 12.9543 2.5266 12.9559 2.52833C12.9491 2.54282 12.9371 2.5542 12.9222 2.56017C12.9088 2.56691 12.8953 2.57357 12.8802 2.58033C12.8483 2.59375 12.818 2.60717 12.7862 2.62057C12.7828 2.62223 12.7778 2.62396 12.7744 2.62559C12.7698 2.62724 12.7658 2.63016 12.7628 2.63401C12.7599 2.63786 12.7581 2.64248 12.7577 2.64732L12.7578 2.64987C12.7578 2.65413 12.7572 2.65837 12.756 2.66245C12.7543 2.6809 12.7526 2.70104 12.7509 2.72114C12.7507 2.73297 12.7496 2.74477 12.7476 2.75644C12.746 2.78161 12.7426 2.8067 12.7409 2.83026L12.7359 2.86546C12.7342 2.89567 12.7308 2.92422 12.7291 2.9527C12.7274 2.96611 12.7275 2.97953 12.7257 2.99293C12.7241 3.00974 12.7223 3.0248 12.7207 3.04158C12.7191 3.05335 12.7191 3.06502 12.7173 3.07679C12.7157 3.10025 12.7123 3.12378 12.7106 3.14724C12.7089 3.159 12.7089 3.16904 12.7073 3.17908C12.7056 3.19084 12.7056 3.20088 12.7039 3.21265C12.7032 3.21765 12.701 3.22235 12.6978 3.22622C12.6945 3.23009 12.6903 3.23297 12.6855 3.23455C12.6686 3.24129 12.6536 3.24795 12.6384 3.25469C12.6287 3.25932 12.6186 3.26325 12.6083 3.26646C12.6068 3.26721 12.6052 3.26761 12.6035 3.26763C12.6022 3.26762 12.6009 3.26737 12.5997 3.26687C12.5985 3.26638 12.5974 3.26564 12.5965 3.26472C12.5932 3.24794 12.5881 3.23116 12.5847 3.21447C12.5663 3.12888 12.5478 3.04503 12.5294 2.95944C12.5093 2.87057 12.4908 2.7816 12.4706 2.69265C12.4521 2.61045 12.4337 2.52659 12.4152 2.44264C12.4018 2.38052 12.3884 2.31847 12.3749 2.25469C12.3668 2.2149 12.3544 2.1761 12.3379 2.13899C12.3227 2.10213 12.3077 2.06517 12.2926 2.02997C12.2909 2.02495 12.2876 2.01993 12.2859 2.01482C12.2697 2.01754 12.254 2.02207 12.2389 2.02831C12.202 2.04174 12.1634 2.05679 12.1264 2.07029C12.1012 2.08032 12.0761 2.08707 12.0509 2.09711C12.0206 2.10715 11.9904 2.11723 11.9603 2.12732C11.9048 2.14747 11.8494 2.16591 11.7958 2.18433C11.7672 2.19437 11.7369 2.20616 11.7084 2.2162C11.6765 2.22623 11.6446 2.238 11.6127 2.24811C11.5808 2.25988 11.5489 2.27157 11.5153 2.28333C11.5137 2.28333 11.5119 2.28497 11.5086 2.28669C11.5073 2.29079 11.5067 2.29504 11.5068 2.29931L11.5068 2.30176C11.5035 2.32695 11.5018 2.35214 11.5001 2.3773C11.4967 2.41754 11.495 2.45952 11.4933 2.49974C11.4918 2.52493 11.4901 2.55003 11.4884 2.57522C11.4867 2.61546 11.485 2.65579 11.4816 2.69767C11.4816 2.71774 11.48 2.73791 11.4783 2.75806C11.4766 2.78325 11.4732 2.81007 11.4698 2.83526C11.4695 2.83989 11.4684 2.84443 11.4665 2.84867C11.4665 2.85369 11.4615 2.85541 11.4581 2.8587C11.4466 2.86249 11.4354 2.867 11.4246 2.87219C11.4011 2.88223 11.3775 2.894 11.3541 2.90404C11.347 2.90703 11.3397 2.90927 11.3322 2.91072C11.3271 2.90733 11.3271 2.90232 11.3254 2.8973C11.3187 2.86884 11.3137 2.84028 11.3086 2.81173C11.3002 2.75799 11.2902 2.70432 11.2801 2.65233C11.2649 2.57513 11.2515 2.49795 11.2365 2.42083C11.2331 2.40405 11.2297 2.38899 11.2264 2.37221C11.226 2.36966 11.2248 2.36731 11.223 2.36546C11.223 2.36207 11.223 2.36208 11.2197 2.3638C11.2044 2.3652 11.1893 2.36743 11.1743 2.37048C11.1155 2.38052 11.0568 2.39062 10.998 2.3973C10.973 2.40068 10.9478 2.40239 10.9225 2.4024C10.9167 2.40282 10.9108 2.40307 10.9049 2.40307C10.899 2.40307 10.8931 2.40282 10.8873 2.4024L10.8923 2.39236C10.9057 2.3773 10.9208 2.3639 10.9343 2.35041C10.9749 2.31245 11.0175 2.27663 11.0619 2.2431C11.0854 2.22458 11.1089 2.20612 11.1325 2.18771L11.1408 2.17931C11.114 2.14072 11.0871 2.10385 11.0586 2.0669C11.0317 2.03004 11.0032 1.99308 10.9763 1.95614C10.9477 1.91754 10.9192 1.8806 10.8907 1.84373C10.8637 1.80687 10.8352 1.77155 10.8067 1.73468V1.73305L10.8084 1.73139C10.852 1.71125 10.8974 1.69114 10.9411 1.66926C10.9447 1.67092 10.9481 1.67321 10.951 1.67602C10.9695 1.69115 10.9897 1.70622 11.0081 1.72128C11.03 1.73807 11.0519 1.75485 11.0737 1.77164C11.1006 1.79344 11.1274 1.81361 11.1526 1.83368C11.1745 1.85047 11.1946 1.86553 11.2147 1.88232C11.2282 1.89236 11.2399 1.90247 11.2516 1.91252C11.2533 1.91252 11.255 1.91416 11.2566 1.91416C11.262 1.9201 11.2683 1.9252 11.2752 1.92931C11.3004 1.94946 11.3255 1.96954 11.3507 1.98805C11.3608 1.99645 11.3708 2.00486 11.3826 2.01324C11.3842 2.01663 11.3876 2.01826 11.391 2.02164C11.5101 1.95448 11.6294 1.88906 11.7503 1.82365C11.8695 1.75821 11.9904 1.69443 12.1096 1.62902C12.1107 1.62601 12.1111 1.62281 12.1108 1.61964C12.1105 1.61646 12.1095 1.61339 12.108 1.6106C12.0996 1.59545 12.0928 1.57874 12.0844 1.56361C12.071 1.53506 12.0559 1.50658 12.0442 1.47803C12.0353 1.45721 12.024 1.43749 12.0106 1.41926C11.9821 1.38067 11.9535 1.34211 11.925 1.30357C11.8797 1.24151 11.8343 1.17939 11.7907 1.11734C11.7252 1.0284 11.6614 0.93952 11.5976 0.850644C11.5388 0.768423 11.4801 0.687852 11.423 0.605653C11.4163 0.595616 11.4096 0.585495 11.4029 0.573812C11.4005 0.570832 11.3987 0.567386 11.3977 0.563684C11.4297 0.548556 11.4616 0.533444 11.4934 0.518349C11.4981 0.520822 11.5026 0.523624 11.5068 0.526745C11.5287 0.538513 11.5489 0.553574 11.569 0.566977C11.5891 0.58204 11.611 0.597186 11.6311 0.613968C11.6328 0.613968 11.6328 0.613966 11.6345 0.615625C11.6395 0.618985 11.6463 0.62401 11.6513 0.627395L11.6547 0.630755C11.6698 0.640792 11.6832 0.650924 11.6984 0.662596C11.7084 0.669342 11.7185 0.677749 11.7302 0.686129C11.7453 0.697894 11.7604 0.707957 11.7739 0.719722C11.7839 0.726469 11.7923 0.733125 11.8007 0.739881C11.8125 0.748284 11.8243 0.756666 11.8343 0.765071C11.843 0.770097 11.8514 0.775706 11.8594 0.781857C11.8828 0.798644 11.9064 0.81543 11.9282 0.833872C11.9434 0.843911 11.9568 0.855676 11.9719 0.865713C11.9756 0.868248 11.9796 0.87047 11.9837 0.872359C11.9905 0.868996 11.9971 0.867336 12.0038 0.863976C12.0442 0.847191 12.0828 0.828753 12.1214 0.811961L12.1517 0.801922C12.1528 0.800821 12.1543 0.800205 12.1559 0.800198L12.1566 0.800266C12.1656 0.796921 12.1754 0.796412 12.1848 0.798812C12.1941 0.801212 12.2024 0.806406 12.2087 0.813692C12.2192 0.826616 12.2282 0.840662 12.2356 0.855573C12.2497 0.88365 12.2616 0.912853 12.2709 0.942883C12.2739 0.949911 12.2754 0.957468 12.2754 0.965105C12.2755 0.971204 12.2745 0.977263 12.2725 0.983034C12.2714 0.984243 12.2708 0.985794 12.2708 0.987401L12.2709 0.988151C12.2654 0.999628 12.2558 1.0086 12.244 1.01325C12.2306 1.01999 12.2171 1.02667 12.2037 1.03505C12.2053 1.03671 12.207 1.04007 12.2087 1.04173C12.2197 1.04904 12.2304 1.05702 12.2406 1.06534C12.2507 1.07201 12.259 1.07875 12.2674 1.08541C12.2876 1.09883 12.3061 1.11398 12.3263 1.12738C12.3354 1.13519 12.3449 1.14247 12.3548 1.14919L12.3901 1.17438C12.4019 1.18442 12.4153 1.19452 12.427 1.20293C12.4404 1.21297 12.4538 1.22138 12.4656 1.23149C12.4756 1.23816 12.4841 1.24491 12.4942 1.25156C12.5143 1.26834 12.5362 1.28513 12.5563 1.30019C12.5571 1.30112 12.5583 1.30171 12.5596 1.30184L12.6452 1.36726C12.6586 1.36224 12.6721 1.35722 12.6838 1.35219C12.6909 1.35015 12.6976 1.34734 12.704 1.34381C12.7813 1.30695 12.8602 1.27501 12.9374 1.24144C12.9827 1.223 13.0264 1.20622 13.0717 1.18943C13.1365 1.16505 13.2033 1.14648 13.2714 1.13396C13.3119 1.12619 13.353 1.12226 13.3942 1.1222L13.4091 1.12236C13.4144 1.1222 13.4198 1.12203 13.425 1.12203C13.4633 1.12207 13.5014 1.12669 13.5385 1.13579C13.5395 1.13663 13.5406 1.13717 13.5418 1.13735C13.5622 1.14229 13.5816 1.15084 13.5989 1.1626C13.6079 1.16891 13.6152 1.17719 13.6205 1.18679C13.6257 1.19639 13.6287 1.20705 13.6291 1.21798C13.6294 1.22069 13.6295 1.22349 13.6295 1.22622C13.6294 1.24071 13.6266 1.25505 13.6209 1.26835Z" fill="white"/>
<path d="M15.1304 14.5734C15.265 14.5734 15.3984 14.5999 15.5228 14.6514C15.6472 14.7028 15.7602 14.7783 15.8554 14.8734C15.9506 14.9686 16.0261 15.0815 16.0777 15.2058C16.1292 15.3301 16.1557 15.4634 16.1557 15.5979C16.1557 15.4634 16.1822 15.3301 16.2338 15.2058C16.2853 15.0815 16.3608 14.9686 16.456 14.8734C16.5513 14.7783 16.6643 14.7028 16.7887 14.6514C16.9131 14.5999 17.0464 14.5734 17.1811 14.5734C16.9091 14.5734 16.6483 14.4654 16.456 14.2733C16.2637 14.0811 16.1557 13.8206 16.1557 13.5488C16.1557 13.6834 16.1292 13.8166 16.0777 13.9409C16.0261 14.0652 15.9506 14.1781 15.8554 14.2733C15.7602 14.3684 15.6472 14.4439 15.5228 14.4954C15.3984 14.5469 15.265 14.5734 15.1304 14.5734Z" fill="white"/>
<path d="M13.6401 14.1133V14.1136C13.8162 14.1169 13.9842 14.1875 14.1099 14.3107C14.2355 14.434 14.3092 14.6006 14.3158 14.7764H14.3168C14.3234 14.6006 14.397 14.4339 14.5227 14.3107C14.6483 14.1875 14.8164 14.1169 14.9924 14.1136V14.1133C14.8119 14.1099 14.64 14.0358 14.5136 13.9071C14.3871 13.7784 14.3163 13.6052 14.3163 13.4248C14.3163 13.6052 14.2454 13.7784 14.119 13.9071C13.9926 14.0358 13.8206 14.1099 13.6401 14.1133Z" fill="white"/>
<path d="M3.19434 13.9297V13.93C3.37037 13.9333 3.53845 14.0039 3.66409 14.1271C3.78973 14.2504 3.86339 14.417 3.86996 14.5928H3.871C3.87758 14.417 3.95125 14.2504 4.07689 14.1271C4.20253 14.0039 4.3706 13.9333 4.54663 13.93V13.9297C4.36615 13.9263 4.19421 13.8522 4.06777 13.7235C3.94134 13.5948 3.8705 13.4216 3.87049 13.2412C3.87048 13.4216 3.79965 13.5948 3.67321 13.7235C3.54677 13.8522 3.37483 13.9263 3.19434 13.9297Z" fill="white"/>
</svg>
